<svg xmlns="http://www.w3.org/2000/svg" xmlns:xlink="http://www.w3.org/1999/xlink" version="1.1" x="0px" y="0px" width="176.907px" height="176.907px" viewBox="0 0 176.907 176.907" enable-background="new 0 0 176.907 176.907" xml:space="preserve">

<g id="Layer_3">
	<g id="g67483">
		<path fill="#FFFFFF" stroke="#FFFFFF" stroke-width="0.0023" stroke-miterlimit="10.433" d="M13.757,76.674    c-3.779-0.201-5.752,2.375-5.969,6.438l-0.25,4.564l0.334,0.017c0.167-1.288,0.334-1.472,1.605-1.321l7.507,0.384h0.1h0.117    l0.083,0.017h0.1h0.084l0.083,0.017h0.067l0.083,0.017l0.067,0.017l0.067,0.017l0.05,0.017l0.067,0.033l0.05,0.017l0.05,0.033    l0.033,0.033l0.05,0.05l0.034,0.034l0.033,0.05l0.034,0.05l0.033,0.05l0.017,0.067l0.017,0.05l0.033,0.083l0.017,0.067    l0.017,0.083v0.083l0.017,0.083v0.101l0.017,0.083v0.067v0.05v0.05v0.05v0.067v0.05l0.318,0.017l0.268-4.782    C19.258,78.296,16.015,76.792,13.757,76.674z M18.322,84.015v0.067v0.067l-0.017,0.066v0.067v0.067l-0.017,0.05v0.067l-0.017,0.05    l-0.017,0.033v0.05l-0.017,0.05l-0.017,0.033l-0.017,0.034l-0.017,0.033l-0.017,0.034l-0.017,0.033l-0.017,0.017l-0.033,0.033    l-0.017,0.017l-0.033,0.017l-0.017,0.017l-0.033,0.017l-0.034,0.017l-0.034,0.017h-0.033l-0.05,0.017H17.82h-0.05h-0.033h-0.05    h-0.05h-0.05l-8.594-0.452C8.658,84.516,8.34,84.5,8.374,83.713c0.117-2.14,0.619-3.06,1.388-3.829    c1.12-1.12,2.508-1.455,3.929-1.371C18.606,78.765,18.389,82.928,18.322,84.015z"/>
		<path id="path64549" fill="none" stroke="#EFD764" stroke-width="0.0065" stroke-miterlimit="10.433" d="M41.111,105.717    l3.11-38.506c-0.285-15.082-5.284-16.52-5.284-16.52L58.55,38.871c18.609,10.734,29.645-3.344,29.645-3.344    c16.502,15.8,30.464,3.645,30.464,3.645l20.448,11.67c-6.571,7.106-5.534,12.306-5.534,12.306l1.688,42.067L88.746,70.99    L41.111,105.717z"/>
		<path id="path64553" fill="none" stroke="#EFD764" stroke-width="0.0046" stroke-miterlimit="10.433" d="M88.679,150.777    l0.017-0.017l0.034-0.066l0.083-0.101l0.117-0.134l0.151-0.184l0.167-0.201l0.234-0.234l0.25-0.268l0.301-0.301l0.334-0.318    l0.368-0.351l0.418-0.368l0.468-0.385l0.502-0.401l0.552-0.418l0.602-0.418l0.652-0.451l0.685-0.452l0.752-0.451l0.786-0.469    l0.853-0.468l0.903-0.468l0.953-0.468l1.02-0.451l1.054-0.468l1.137-0.451l1.17-0.452l1.254-0.435l1.304-0.418l1.354-0.401    l1.438-0.401l1.488-0.368c0,0,11.219-0.385,21.118-15.784L88.462,93.511l-42,29.795c10.5,15.483,21.77,15.801,21.77,15.801    C85.486,145.009,88.679,150.777,88.679,150.777z"/>
		
			<line id="line64561" fill="none" stroke="#FFFFFF" stroke-width="0.0043" stroke-miterlimit="10.433" x1="56.276" y1="122.504" x2="68.348" y2="122.504"/>
		<polyline id="polyline64563" fill="none" stroke="#FFFFFF" stroke-width="0.4693" stroke-miterlimit="10.433" points="    67.946,130.044 68.917,130.044 68.917,126.884   "/>
		<polyline id="polyline64565" fill="none" stroke="#FFFFFF" stroke-width="0.4693" stroke-miterlimit="10.433" points="    61.108,130.044 62.278,130.044 62.278,129.342   "/>
		
			<line id="line64567" fill="none" stroke="#FFFFFF" stroke-width="0.0043" stroke-miterlimit="10.433" x1="58.918" y1="126.182" x2="58.918" y2="132.051"/>
		<path id="path64569" fill="#FFFFFF" d="M69.919,123.156v-0.067l0.017-0.05l0.017-0.066l0.017-0.067l0.017-0.05l0.034-0.05    l0.033-0.117l0.05-0.1l0.05-0.101l0.067-0.1l0.05-0.083l0.067-0.083l0.067-0.084l0.067-0.067l0.067-0.083l0.083-0.067l0.067-0.05    l0.067-0.067l0.067-0.05l0.067-0.05l0.067-0.05l0.067-0.033l0.067-0.05l0.067-0.033l0.067-0.034l0.05-0.033l0.05-0.017l0.05-0.017    l0.034-0.017l0.05-0.017l0.017-0.017l0.033-0.017h0.017l0,0l0,0h0.017l0,0l0,0C69.518,121.133,69.919,123.156,69.919,123.156z"/>
		
			<line id="line64571" fill="none" stroke="#FFFFFF" stroke-width="0.0032" stroke-miterlimit="10.433" x1="75.487" y1="122.537" x2="101.57" y2="122.537"/>
		<path id="path64573" fill="#FFFFFF" d="M103.928,122.103h0.034h0.017h0.033h0.017h0.033h0.017h0.017l0.017-0.017h0.033h0.017    l0.017-0.017h0.017l0.034-0.017h0.017l0.033-0.017l0.034-0.033l0.033-0.017l0.034-0.033l0.033-0.017l0.034-0.033l0.033-0.033    l0.017-0.017l0.034-0.034l0.017-0.033l0.034-0.033l0.017-0.034l0.017-0.017l0.017-0.033l0.017-0.034l0.017-0.017l0.017-0.017    v-0.033l0.017-0.017v-0.017h0.017l0,0v-0.017l0,0V121.5l0,0h0.017l0,0l0,0v-0.017l0,0    C104.195,121.584,103.928,122.103,103.928,122.103z"/>
		<path id="path64575" fill="none" stroke="#FFFFFF" stroke-width="0.0043" stroke-miterlimit="10.433" d="M116.334,125.313    c1.053,2.057,0,4.983,0,4.983"/>
		<path id="path64577" fill="none" stroke="#FFFFFF" stroke-width="0.0043" stroke-miterlimit="10.433" d="M116.417,118.157    c0.836,1.755-0.301,4.38-0.301,4.38"/>
		<path id="path64579" fill="none" stroke="#FFFFFF" stroke-width="0.0043" stroke-miterlimit="10.433" d="M110.114,115.13    l-0.15,0.117l-0.151,0.117l-0.15,0.117l-0.133,0.134l-0.134,0.15l-0.134,0.134l-0.117,0.15l-0.134,0.167l-0.101,0.151    l-0.117,0.184l-0.117,0.167l-0.1,0.184l-0.101,0.184l-0.083,0.201l-0.084,0.201l-0.083,0.201l-0.083,0.201l-0.083,0.217    l-0.067,0.217l-0.067,0.234l-0.067,0.217l-0.05,0.234l-0.067,0.251l-0.05,0.234l-0.034,0.251l-0.05,0.25l-0.034,0.251    l-0.034,0.268l-0.033,0.25l-0.034,0.268l-0.017,0.285l-0.017,0.267c-0.167,2.926,0,5.267,0.569,7.357    c0.702,2.592,2.541,3.729,2.541,3.729"/>
		<polyline id="polyline64583" fill="none" stroke="#FFFFFF" stroke-width="0.5864" stroke-miterlimit="10.433" points="    58.784,57.413 58.901,57.396 59.035,57.363 59.152,57.346 59.269,57.313 59.386,57.279 59.503,57.263 59.72,57.179 59.938,57.112     60.138,57.012 60.339,56.928 60.523,56.811 60.69,56.711 60.857,56.594 61.024,56.477 61.175,56.36 61.309,56.243 61.442,56.125     61.576,55.992 61.693,55.875 61.793,55.741 61.894,55.624 61.994,55.507 62.078,55.39 62.162,55.29 62.228,55.172 62.295,55.072     62.345,54.989 62.396,54.905 62.446,54.821 62.479,54.754 62.496,54.705 62.529,54.654 62.529,54.638 62.546,54.621     62.546,54.621 62.546,54.604 62.546,54.604 62.546,54.604 82.71,49.956 83.413,50.742   "/>
		<polygon id="polygon64585" fill="#FFFFFF" points="52.648,54.42 53.267,56.176 53.166,54.253   "/>
		<polygon id="polygon64587" fill="none" stroke="#FFFFFF" stroke-width="0.3517" stroke-miterlimit="10.433" points="52.648,54.42     53.267,56.176 53.166,54.253   "/>
		<path id="path64589" fill="#FFFFFF" d="M117.471,56.878l0.133,0.034l0.134,0.017l0.134,0.017l0.133,0.017l0.134,0.017h0.134h0.117    l0.134-0.017h0.117l0.117-0.017l0.117-0.017l0.117-0.033l0.117-0.017l0.117-0.033l0.217-0.067l0.217-0.101l0.201-0.083    l0.201-0.117l0.184-0.117l0.184-0.117l0.167-0.117l0.167-0.134l0.167-0.15l0.133-0.134l0.151-0.134l0.117-0.15l0.134-0.134    l0.1-0.134l0.101-0.117l0.1-0.134l0.083-0.117l0.067-0.101l0.067-0.1l0.067-0.083l0.017-0.034l0.017-0.033l0.017-0.034    l0.017-0.033l0.017-0.017l0.017-0.034v-0.017h0.017v-0.017l0,0l1.404,0.317C121.467,58.634,117.471,56.878,117.471,56.878z"/>
		<polyline id="polyline64591" fill="none" stroke="#FFFFFF" stroke-width="0.7823" stroke-miterlimit="10.433" points="    91.037,52.146 92.976,50.391 95.083,50.742   "/>
		<path id="path64593" fill="none" stroke="#FFFFFF" stroke-width="0.0072" stroke-miterlimit="10.433" d="M86.74,56.61    l-0.167,6.755c-0.084,1.405,1.488,1.756,1.488,1.756"/>
		<polygon id="polygon64603" fill="none" stroke="#FFFFFF" stroke-width="0.5" stroke-miterlimit="10.433" points="58.383,62.262     58.349,78.881 66.81,78.814   "/>
		<polygon id="polygon64607" fill="none" stroke="#FFFFFF" stroke-width="0.5" stroke-miterlimit="10.433" points="57.53,62.947     57.547,78.798 48.602,78.798   "/>
		<path id="path64609" fill="#FFFFFF" d="M54.671,81.808l-0.05-0.05l-0.067-0.034l-0.067-0.033l-0.05-0.034l-0.117-0.083    l-0.117-0.083l-0.1-0.083l-0.083-0.083l-0.084-0.101l-0.083-0.083l-0.083-0.083l-0.067-0.101l-0.067-0.083l-0.05-0.083    l-0.05-0.101l-0.05-0.083l-0.05-0.083L53.4,80.437l-0.033-0.083l-0.033-0.084L53.3,80.202l-0.017-0.083l-0.034-0.067l-0.017-0.067    l-0.017-0.05L53.2,79.868v-0.05l-0.017-0.034v-0.05v-0.034l-0.017-0.017v-0.017V79.65l0,0l0,0l12.59,0.034    c-0.452,2.057-2.809,3.544-2.809,3.544c1.588-1.672,1.354-3.009,1.354-3.009h-9.848C54.036,80.737,54.671,81.808,54.671,81.808z"/>
		<polygon id="polygon64615" fill="none" stroke="#FFFFFF" stroke-width="0.5" stroke-miterlimit="10.433" points="117.655,63.315     117.604,79.232 109.195,79.232   "/>
		<polygon id="polygon64619" fill="none" stroke="#FFFFFF" stroke-width="0.5" stroke-miterlimit="10.433" points="118.391,63.231     118.458,79.199 127.302,79.199   "/>
		<path id="path64623" fill="#FFFFFF" d="M58.149,63.031l0.05-0.017h0.067h0.05l0.05-0.017l0.05-0.017l0.067-0.017l0.05-0.017    l0.05-0.017l0.05-0.033l0.05-0.017l0.034-0.033l0.05-0.034l0.05-0.033l0.034-0.034l0.05-0.033l0.034-0.05l0.033-0.033l0.034-0.05    l0.033-0.05l0.034-0.033l0.033-0.05l0.017-0.05l0.033-0.05l0.017-0.067l0.034-0.05l0.017-0.05v-0.067l0.017-0.05l0.017-0.067    v-0.05l0.017-0.067v-0.067c0-0.669-0.519-1.204-1.12-1.204c-0.619,0-1.121,0.535-1.121,1.204    C57.028,62.479,57.53,63.031,58.149,63.031z"/>
		<path id="path64627" fill="#FFFFFF" d="M117.906,63.365h0.067h0.05l0.067-0.017h0.05l0.05-0.017l0.05-0.017l0.05-0.017l0.05-0.017    l0.05-0.034l0.05-0.033l0.05-0.017l0.05-0.034l0.033-0.033l0.051-0.034l0.033-0.05l0.05-0.034l0.033-0.033l0.033-0.05l0.034-0.05    l0.033-0.05l0.034-0.05l0.017-0.05l0.033-0.05l0.017-0.05l0.017-0.05l0.017-0.067l0.017-0.05l0.017-0.05v-0.067l0.017-0.067v-0.05    v-0.067c0-0.669-0.485-1.204-1.12-1.204c-0.602,0-1.104,0.535-1.104,1.204C116.802,62.83,117.304,63.365,117.906,63.365z"/>
		<path id="path64629" fill="none" stroke="#FFFFFF" stroke-width="2" stroke-miterlimit="10.433" d="M88.462,154.193l3.378-0.083    l3.345-0.265l3.279-0.414l3.246-0.58l3.179-0.728l3.114-0.895l3.064-1.026l2.98-1.176l2.915-1.325l2.832-1.44l2.75-1.59    l2.667-1.706l2.583-1.839l2.484-1.954l2.384-2.053l2.286-2.187l2.17-2.286l2.07-2.384l1.954-2.484l1.822-2.567l1.722-2.667    l1.573-2.766l1.457-2.832l1.309-2.915l1.176-2.981l1.043-3.047l0.878-3.13l0.745-3.18l0.563-3.229l0.43-3.295l0.249-3.346    l0.083-3.378c0-36.302-29.429-65.731-65.731-65.731c-36.319,0-65.748,29.429-65.748,65.731S52.143,154.193,88.462,154.193z"/>
		<path id="path64631" fill="none" stroke="#FFFFFF" stroke-width="2" stroke-miterlimit="10.433" d="M88.462,175.907l4.498-0.117    l4.431-0.334l4.38-0.552l4.314-0.769l4.23-0.986l4.146-1.17l4.063-1.371l3.979-1.572l3.862-1.755l3.779-1.923l3.662-2.106    l3.544-2.274l3.427-2.441l3.311-2.592l3.16-2.758l3.043-2.893l2.892-3.043l2.759-3.177l2.592-3.294l2.441-3.427l2.274-3.544    l2.107-3.679l1.923-3.762l1.755-3.879l1.572-3.962l1.371-4.063l1.17-4.163l0.986-4.23l0.769-4.297l0.552-4.38l0.334-4.448    l0.117-4.498C175.907,40.158,136.749,1,88.462,1C40.158,1,1,40.158,1,88.445C1,136.749,40.158,175.907,88.462,175.907z"/>
		<g>
			<path fill="#FFFFFF" d="M57.337,63.29l-8.736,15.508h8.945L57.53,63.383C57.463,63.357,57.4,63.324,57.337,63.29z"/>
			<path fill="#FFFFFF" d="M110.064,80.119h0.017v0.034l0.017,0.017l0.017,0.05l0.017,0.033l0.017,0.05l0.017,0.067l0.034,0.05     l0.033,0.084l0.034,0.067l0.05,0.083l0.033,0.083l0.05,0.083l0.05,0.083l0.067,0.101l0.05,0.101l0.067,0.1l0.066,0.1l0.083,0.101     l0.067,0.1l0.083,0.101l0.1,0.117l0.083,0.101l0.101,0.1l0.1,0.117l0.117,0.101l0.1,0.1l0.117,0.1l0.134,0.101l0.134,0.1     l0.134,0.101c0,0-0.268-1.188,0.15-1.839h9.832c0,0-0.151,1.003-1.806,3.126c0,0,2.458-1.137,2.926-3.762l-13.092-0.067V80.119z"/>
			<path fill="#FFFFFF" d="M117.653,63.843c-0.085-0.013-0.167-0.033-0.248-0.059l-8.211,15.449h8.41L117.653,63.843z"/>
			<polygon fill="#FFFFFF" points="118.608,63.7 118.524,63.733 118.458,63.75 118.393,63.776 118.458,79.199 127.302,79.199      118.639,63.676    "/>
			<path fill="#FFFFFF" d="M41.111,105.717L88.746,70.99l46.515,34.226l-1.688-42.067c0,0-1.037-5.2,5.534-12.306l-20.448-11.67     c0,0-13.961,12.155-30.464-3.645c0,0-11.035,14.078-29.645,3.344L38.938,50.691c0,0,4.999,1.438,5.284,16.52L41.111,105.717z      M56.477,61.827c0-0.461,0.186-0.88,0.486-1.184l-0.135-0.003c-4.748-2.458-5.033-6.705-5.033-6.705L54.32,53.4     c3.779,5.902,7.725,0.217,7.725,0.217l21.067-4.431l3.361,2.976l1.421-9.748l0.083,0.25l1.304,9.497l3.678-2.876l21.034,4.598     c0,0,3.879,5.735,7.725-0.15l2.508,0.552c0,0-0.317,4.247-5.083,6.671l-0.127,0.002c0.324,0.306,0.528,0.737,0.528,1.219v0.083     l-0.017,0.083v0.084l-0.017,0.083l-0.017,0.083l-0.034,0.083l-0.017,0.083l-0.033,0.067l-0.034,0.084l-0.034,0.067l-0.05,0.067     l-0.034,0.067l-0.05,0.067l-0.014,0.019l8.926,16.083c0,0-8.544,14.613-19.997,0.585l8.573-16.537     c-0.275-0.301-0.447-0.705-0.447-1.153c0-0.466,0.19-0.888,0.494-1.192l-0.41,0.005c0,0-3.745-0.836-4.682-4.464H90.251     l0.886,7.273c0,0-0.268,2.625-2.809,2.375c0,0-2.107,0.251-2.859-2.341l0.318-7.39h-0.033l-21.452,0.083     c-0.97,3.628-4.665,4.18-4.665,4.18L59.333,60.7c0.269,0.298,0.438,0.692,0.438,1.127v0.101l-0.017,0.083v0.084l-0.017,0.083     l-0.017,0.067l-0.033,0.083l-0.017,0.084l-0.034,0.066l-0.033,0.084L59.57,62.63l-0.05,0.067l-0.033,0.066l-0.05,0.067     l-0.009,0.012l8.452,16.641c-11.57,13.911-19.997-0.769-19.997-0.769l8.956-15.849C56.615,62.582,56.477,62.225,56.477,61.827z"/>
			<polygon fill="#FFFFFF" points="58.901,63.298 58.834,63.349 58.767,63.382 58.684,63.399 58.617,63.432 58.533,63.449      58.45,63.466 58.38,63.479 58.349,78.881 66.81,78.814 58.909,63.295    "/>
		</g>
		<path id="path64635" fill="none" d="M46.177,123.273l-0.568-0.836l-0.568-0.886l-0.535-0.92l-0.502-0.953l-0.501-0.987    l-0.452-1.036l-0.435-1.037l-0.401-1.07l-0.351-1.087l-0.334-1.104l-0.267-1.12l-0.234-1.104l-0.201-1.121l-0.067-0.568    l-0.067-0.552l-0.05-0.551l-0.034-0.552l-0.017-0.552l-0.017-0.535l48.17-34.911l46.983,34.61c0,5.802-1.12,13.042-4.213,17.355    L88.462,92.726L46.177,123.273z"/>
		<path id="path64637" fill="#FFFFFF" d="M24.006,115.047l2.241,4.414l-0.284,0.151c-0.769-1.354-1.137-1.221-2.174-0.568    l-7.541,3.812l0.334,0.735c0.836,1.656,1.337,1.923,3.143,1.421l0.184,0.368l-2.608,1.204l-4.313-8.51l2.524-1.388l0.184,0.351    c-1.505,1.171-1.555,1.739-0.719,3.394l0.351,0.82l7.708-3.913c1.087-0.519,1.288-0.853,0.686-2.14L24.006,115.047z"/>
		<path id="path64639" fill="#FFFFFF" stroke="#FFFFFF" stroke-width="0.0023" stroke-miterlimit="10.433" d="M24.006,115.047    l2.241,4.414l-0.284,0.151c-0.769-1.354-1.137-1.221-2.174-0.568l-7.541,3.812l0.334,0.735c0.836,1.656,1.337,1.923,3.143,1.421    l0.184,0.368l-2.608,1.204l-4.313-8.51l2.524-1.388l0.184,0.351c-1.505,1.171-1.555,1.739-0.719,3.394l0.351,0.82l7.708-3.913    c1.087-0.519,1.288-0.853,0.686-2.14L24.006,115.047z"/>
		<path id="path64641" fill="#FFFFFF" d="M22.953,112.856l-0.017-0.067l-0.034-0.05l-0.017-0.067l-0.017-0.05l-0.033-0.05    l-0.017-0.05l-0.033-0.05l-0.017-0.05l-0.017-0.05l-0.033-0.05l-0.017-0.034l-0.017-0.05l-0.033-0.034l-0.017-0.033l-0.05-0.067    l-0.05-0.067l-0.05-0.05l-0.05-0.05l-0.05-0.05l-0.05-0.034l-0.05-0.033l-0.05-0.034l-0.067-0.017l-0.05-0.017l-0.067-0.017    l-0.067-0.017h-0.067H21.85l-0.067,0.017h-0.067l-0.083,0.017l-0.083,0.017l-0.083,0.017l-0.084,0.017l-0.1,0.033l-0.101,0.033    l-0.1,0.017l-0.1,0.033l-0.117,0.033l-6.972,2.274c-1.187,0.385-1.271,0.652-0.987,1.873l-0.301,0.1l-1.455-4.464l0.318-0.1    c0.485,1.187,0.752,1.304,1.906,0.953l3.11-1.02l-1.638-4.882l-3.11,1.02c-1.137,0.385-1.22,0.652-0.936,1.873l-0.301,0.117    l-1.455-4.481l0.301-0.101c0.501,1.188,0.769,1.321,1.906,0.937l7.156-2.307c1.054-0.334,1.321-0.602,0.986-1.873l0.301-0.117    l1.455,4.481l-0.301,0.1c-0.501-1.337-0.886-1.271-2.09-0.886l-3.143,1.02l1.672,4.949l3.311-1.07    c0.986-0.418,1.237-0.686,0.903-1.973l0.318-0.101l1.438,4.481L22.953,112.856z"/>
		<path id="path64643" fill="#FFFFFF" stroke="#FFFFFF" stroke-width="0.0023" stroke-miterlimit="10.433" d="M22.953,112.856    l-0.017-0.067l-0.034-0.05l-0.017-0.067l-0.017-0.05l-0.033-0.05l-0.017-0.05l-0.033-0.05l-0.017-0.05l-0.017-0.05l-0.033-0.05    l-0.017-0.034l-0.017-0.05l-0.033-0.034l-0.017-0.033l-0.05-0.067l-0.05-0.067l-0.05-0.05l-0.05-0.05l-0.05-0.05l-0.05-0.034    l-0.05-0.033l-0.05-0.034l-0.067-0.017l-0.05-0.017l-0.067-0.017l-0.067-0.017h-0.067H21.85l-0.067,0.017h-0.067l-0.083,0.017    l-0.083,0.017l-0.083,0.017l-0.084,0.017l-0.1,0.033l-0.101,0.033l-0.1,0.017l-0.1,0.033l-0.117,0.033l-6.972,2.274    c-1.187,0.385-1.271,0.652-0.987,1.873l-0.301,0.1l-1.455-4.464l0.318-0.1c0.485,1.187,0.752,1.304,1.906,0.937l3.11-1.003    l-1.638-4.882l-3.11,1.02c-1.137,0.385-1.22,0.652-0.936,1.873l-0.301,0.117l-1.455-4.481l0.301-0.101    c0.501,1.188,0.769,1.321,1.906,0.937l7.156-2.307c1.054-0.352,1.321-0.602,0.986-1.873l0.301-0.117l1.455,4.481l-0.301,0.1    c-0.501-1.337-0.886-1.271-2.09-0.886l-3.143,1.02l1.672,4.949l3.311-1.07c0.986-0.418,1.237-0.686,0.903-1.973l0.318-0.101    l1.438,4.481L22.953,112.856z"/>
		<path id="path64645" fill="#FFFFFF" d="M18.355,92.04l1.421,9.012l-0.317,0.05c-0.234-1.053-0.435-1.421-1.706-1.137l-7.424,1.187    c-1.337,0.117-1.371,0.535-1.288,1.605l-0.317,0.05L7.32,93.946l2.375-0.435l0.067,0.418c-1.455,0.484-1.639,0.97-1.354,2.826    l0.368,2.24c0.05,0.368,0.084,0.552,0.652,0.468l3.712-0.585l-0.418-2.575c-0.234-1.488-0.652-1.588-1.873-1.588l-0.067-0.385    l3.879-0.619l0.067,0.385c-1.304,0.418-1.505,0.702-1.304,2.09l0.384,2.575l4.13-0.652c0.686-0.101,0.719-0.117,0.318-2.608    c-0.334-2.09-0.97-2.842-2.775-3.311l-0.067-0.468L18.355,92.04z"/>
		<path id="path64647" fill="#FFFFFF" stroke="#FFFFFF" stroke-width="0.0023" stroke-miterlimit="10.433" d="M18.355,92.04    l1.421,9.012l-0.317,0.05c-0.234-1.053-0.435-1.421-1.706-1.137l-7.424,1.187c-1.337,0.117-1.371,0.535-1.288,1.605l-0.317,0.05    L7.32,93.946l2.375-0.435l0.067,0.418c-1.455,0.484-1.639,0.97-1.354,2.826l0.368,2.24c0.05,0.368,0.084,0.552,0.652,0.468    l3.712-0.585l-0.418-2.575c-0.234-1.488-0.652-1.588-1.873-1.588l-0.067-0.385l3.879-0.619l0.067,0.385    c-1.304,0.418-1.505,0.702-1.304,2.09l0.384,2.575l4.13-0.652c0.686-0.101,0.719-0.117,0.318-2.608    c-0.334-2.09-0.97-2.842-2.775-3.311l-0.067-0.468L18.355,92.04z"/>
		<path id="path64653" fill="#FFFFFF" d="M21.398,67.712l-1.89,8.929l-0.435,0.067c0.15-1.087,0.083-1.488-1.187-1.756l-7.34-1.555    c-1.321-0.268-1.505,0.1-1.806,1.137l-0.317-0.067l1.855-8.794l2.375,0.451l-0.083,0.401c-1.522-0.05-1.873,0.318-2.274,2.157    l-0.468,2.241c-0.067,0.334-0.117,0.552,0.451,0.668l3.679,0.77l0.535-2.559c0.317-1.471-0.05-1.722-1.188-2.157l0.067-0.368    l3.846,0.803l-0.083,0.384c-1.354-0.083-1.639,0.117-1.939,1.488l-0.569,2.625l4.097,0.786c0.686,0.134,0.702,0.134,1.221-2.324    c0.435-2.073,0.1-2.993-1.405-4.08l0.083-0.468L21.398,67.712z"/>
		<path id="path64655" fill="#FFFFFF" stroke="#FFFFFF" stroke-width="0.0023" stroke-miterlimit="10.433" d="M21.398,67.712    l-1.89,8.929l-0.435,0.05c0.15-1.07,0.083-1.471-1.187-1.739l-7.34-1.555c-1.321-0.268-1.505,0.1-1.806,1.137l-0.317-0.067    l1.855-8.794l2.375,0.451l-0.083,0.401c-1.522-0.05-1.873,0.318-2.274,2.157l-0.468,2.241c-0.067,0.334-0.117,0.552,0.451,0.668    l3.679,0.77l0.535-2.559c0.317-1.471-0.05-1.722-1.188-2.157l0.067-0.368l3.846,0.803l-0.083,0.384    c-1.354-0.083-1.639,0.117-1.939,1.488l-0.569,2.625l4.097,0.786c0.686,0.134,0.702,0.134,1.221-2.324    c0.435-2.073,0.1-2.993-1.405-4.08l0.083-0.468L21.398,67.712z"/>
		<path id="path64669" fill="#FFFFFF" d="M43.218,35.075l-3.544,3.428l-0.234-0.234c1.07-1.12,0.836-1.421,0.034-2.257l-5.869-6.069    l-0.736,0.552c-1.338,1.287-1.455,1.839-0.435,3.411l-0.284,0.301l-1.94-2.14l6.872-6.638l2.073,2.006l-0.301,0.268    c-1.539-1.087-2.09-0.986-3.444,0.318l-0.786,0.719l6.153,6.136c0.786,0.819,1.171,0.919,2.224-0.033L43.218,35.075z"/>
		<path id="path64671" fill="#FFFFFF" stroke="#FFFFFF" stroke-width="0.0023" stroke-miterlimit="10.433" d="M43.218,35.075    l-3.544,3.428l-0.234-0.234c1.07-1.12,0.836-1.421,0.034-2.257l-5.869-6.069l-0.736,0.552c-1.338,1.287-1.455,1.839-0.435,3.411    l-0.284,0.301l-1.94-2.14l6.872-6.638l2.073,2.006l-0.301,0.268c-1.539-1.087-2.09-0.986-3.444,0.318l-0.786,0.719l6.153,6.136    c0.786,0.819,1.171,0.919,2.224-0.033L43.218,35.075z"/>
		<path id="path64673" fill="#FFFFFF" d="M50.524,17.051l-0.083,0.067l-0.067,0.067l-0.083,0.05l-0.067,0.05l-0.05,0.067    l-0.067,0.05l-0.05,0.05l-0.05,0.05l-0.05,0.067l-0.05,0.05l-0.034,0.05l-0.05,0.05l-0.034,0.05l-0.017,0.067l-0.034,0.05    l-0.017,0.05l-0.017,0.067l-0.017,0.066v0.05v0.067v0.067v0.067l0.017,0.083l0.017,0.067l0.017,0.083l0.017,0.084l0.033,0.083    l0.034,0.083l0.017,0.05l0.033,0.05l0.017,0.05l0.017,0.05l0.033,0.05l0.017,0.05l0.033,0.05l0.017,0.067l4.213,6.22    c0.87,1.003,1.271,0.92,2.207,0.352l0.184,0.267l-3.929,2.659l-0.184-0.268c1.07-0.786,1.104-1.12,0.318-2.274l-4.247-6.303    l-0.017,0.033l1.823,10.367l-0.201,0.15l-8.661-5.3l-0.033,0.017l3.779,5.584c0.986,1.455,1.488,1.555,2.541,0.92l0.184,0.25    l-3.311,2.224l-0.167-0.268c1.053-0.819,1.321-0.936,0.134-2.708l-3.829-5.685c-0.752-1.104-1.12-1.02-2.19-0.368l-0.184-0.267    l2.775-1.873l8.025,4.899l-1.688-9.18l2.792-1.889L50.524,17.051z"/>
		<path id="path64675" fill="#FFFFFF" stroke="#FFFFFF" stroke-width="0.0023" stroke-miterlimit="10.433" d="M50.524,17.051    l-0.083,0.067l-0.067,0.067l-0.083,0.05l-0.067,0.05l-0.05,0.067l-0.067,0.05l-0.05,0.05l-0.05,0.05l-0.05,0.067l-0.05,0.05    l-0.034,0.05l-0.05,0.05l-0.034,0.05l-0.017,0.067l-0.034,0.05l-0.017,0.05l-0.017,0.067l-0.017,0.066v0.05v0.067v0.067v0.067    l0.017,0.083l0.017,0.067l0.017,0.083l0.017,0.084l0.033,0.083l0.034,0.083l0.017,0.05l0.033,0.05l0.017,0.05l0.017,0.05    l0.033,0.05l0.017,0.05l0.033,0.05l0.017,0.067l4.213,6.22c0.87,1.003,1.271,0.92,2.207,0.352l0.184,0.267l-3.929,2.659    l-0.184-0.268c1.07-0.786,1.104-1.12,0.318-2.274l-4.247-6.303l-0.017,0.033l1.823,10.367l-0.201,0.15l-8.661-5.3l-0.033,0.017    l3.779,5.584c0.986,1.455,1.488,1.555,2.541,0.92l0.184,0.25l-3.311,2.224l-0.167-0.268c1.053-0.819,1.321-0.936,0.134-2.708    l-3.829-5.685c-0.752-1.104-1.12-1.02-2.19-0.368l-0.184-0.267l2.775-1.873l8.025,4.899l-1.688-9.18l2.792-1.889L50.524,17.051z"/>
		<path id="path64677" fill="#FFFFFF" d="M75.571,8.658l-0.1,0.034l-0.084,0.033l-0.083,0.033L75.22,8.792l-0.083,0.033l-0.083,0.05    l-0.067,0.034l-0.067,0.033l-0.067,0.034l-0.066,0.05l-0.05,0.05l-0.05,0.034l-0.05,0.05l-0.05,0.067l-0.05,0.05l-0.033,0.067    L74.467,9.41l-0.017,0.067l-0.034,0.083L74.4,9.627l-0.017,0.1v0.034v0.05l-0.017,0.05v0.05v0.05v0.067l0.017,0.05v0.05v0.067    v0.066l0.017,0.05v0.067l0.017,0.067l0.017,0.083l0.017,0.067l0.017,0.067v0.083l0.034,0.084l0.017,0.083l0.017,0.083l0.017,0.083    l0.034,0.084l2.307,8.594l-0.284,0.067l-9.597-7.006h-0.033l1.722,6.371c0.452,1.688,0.903,1.956,2.107,1.688l0.017,0.301    l-3.829,1.037l-0.034-0.301c1.221-0.418,1.505-0.752,1.02-2.524l-1.939-7.207c-0.886-0.635-1.17-0.652-1.822-0.468L64.134,11.4    l2.792-0.752l8.376,6.169h0.034l-1.472-5.467c-0.518-1.873-1.003-1.873-2.14-1.655l-0.083-0.317l3.829-1.037L75.571,8.658z"/>
		<path id="path64679" fill="#FFFFFF" stroke="#FFFFFF" stroke-width="0.0023" stroke-miterlimit="10.433" d="M75.571,8.658    l-0.1,0.034l-0.084,0.033l-0.083,0.033L75.22,8.792l-0.083,0.033l-0.083,0.05l-0.067,0.034l-0.067,0.033l-0.067,0.034l-0.066,0.05    l-0.05,0.05l-0.05,0.034l-0.05,0.05l-0.05,0.067l-0.05,0.05l-0.033,0.067L74.467,9.41l-0.017,0.067l-0.034,0.083L74.4,9.627    l-0.017,0.1v0.034v0.05l-0.017,0.05v0.05v0.05v0.067l0.017,0.05v0.05v0.067v0.066l0.017,0.05v0.067l0.017,0.067l0.017,0.083    l0.017,0.067l0.017,0.067v0.083l0.034,0.084l0.017,0.083l0.017,0.083l0.017,0.083l0.034,0.084l2.307,8.594l-0.284,0.067    l-9.597-7.006h-0.033l1.722,6.371c0.452,1.688,0.903,1.956,2.107,1.672l0.017,0.318l-3.829,1.037l-0.034-0.301    c1.221-0.418,1.505-0.752,1.02-2.524l-1.939-7.207c-0.886-0.635-1.17-0.652-1.822-0.468L64.134,11.4l2.792-0.752l8.376,6.169    h0.034l-1.472-5.467c-0.518-1.873-1.003-1.873-2.14-1.655l-0.083-0.317l3.829-1.037L75.571,8.658z"/>
		<path id="path64681" fill="#FFFFFF" d="M84.784,18.456l-4.916,0.535l0.034-0.318c1.521-0.234,1.538-0.635,1.404-1.873l-0.919-8.41    l-0.903,0.101c-1.856,0.201-2.274,0.568-2.441,2.441l-0.401,0.05l-0.217-2.876l9.48-1.037l0.418,2.859L85.92,9.962    c-0.552-1.806-1.07-2.057-2.909-1.856l-0.903,0.1l0.919,8.594c0.134,1.137,0.368,1.438,1.789,1.337L84.784,18.456z"/>
		<path id="path64683" fill="#FFFFFF" stroke="#FFFFFF" stroke-width="0.0023" stroke-miterlimit="10.433" d="M84.784,18.456    l-4.916,0.535l0.034-0.318c1.521-0.234,1.538-0.635,1.404-1.873l-0.919-8.41l-0.903,0.101c-1.856,0.201-2.274,0.568-2.441,2.441    l-0.401,0.05l-0.217-2.876l9.48-1.037l0.418,2.859L85.92,9.962c-0.552-1.806-1.07-2.057-2.909-1.856l-0.903,0.1l0.919,8.594    c0.134,1.137,0.368,1.438,1.789,1.337L84.784,18.456z"/>
		<path id="path64689" fill="#FFFFFF" d="M109.228,17.419l0.017-0.067v-0.067l0.017-0.117v-0.117l0.017-0.117v-0.1v-0.101    l-0.017-0.1v-0.084l-0.017-0.083l-0.017-0.083l-0.017-0.067l-0.017-0.083l-0.034-0.067l-0.033-0.05l-0.034-0.067l-0.034-0.05    l-0.05-0.05l-0.05-0.05l-0.05-0.05l-0.05-0.033l-0.067-0.05l-0.067-0.033l-0.066-0.034l-0.067-0.05l-0.083-0.033l-0.084-0.034    l-0.083-0.033l-0.101-0.017l-0.084-0.034l-0.117-0.033l-0.101-0.034l-0.117-0.033l-2.375-0.636l-0.903,3.578    c-0.317,1.237-0.05,1.521,1.104,1.873l-0.083,0.301l-4.581-1.17l0.083-0.318c1.238,0.251,1.505,0.05,1.856-1.287l1.806-7.106    c0.334-1.288-0.034-1.488-1.037-1.823l0.066-0.317l8.711,2.224l-0.552,2.357l-0.418-0.1c0.134-1.521-0.217-1.906-2.04-2.358    l-2.24-0.585c-0.401-0.1-0.535-0.067-0.669,0.435l-0.919,3.628l2.375,0.619c1.337,0.334,1.722,0.1,2.19-1.104l0.384,0.1    l-0.969,3.813L109.228,17.419z"/>
		<path id="path64691" fill="#FFFFFF" stroke="#FFFFFF" stroke-width="0.0023" stroke-miterlimit="10.433" d="M109.228,17.419    l0.017-0.067v-0.067l0.017-0.117v-0.117l0.017-0.117v-0.1v-0.101l-0.017-0.1v-0.084l-0.017-0.083l-0.017-0.083l-0.017-0.067    l-0.017-0.083l-0.034-0.067l-0.033-0.05l-0.034-0.067l-0.034-0.05l-0.05-0.05l-0.05-0.05l-0.05-0.05l-0.05-0.033l-0.067-0.05    l-0.067-0.033l-0.066-0.034l-0.067-0.05l-0.083-0.033l-0.084-0.034l-0.083-0.033l-0.101-0.017l-0.084-0.034l-0.117-0.033    l-0.101-0.034l-0.117-0.033l-2.375-0.636l-0.903,3.578c-0.317,1.237-0.05,1.521,1.104,1.873l-0.083,0.301l-4.581-1.17l0.083-0.318    c1.238,0.251,1.505,0.05,1.856-1.287l1.806-7.106c0.334-1.288-0.034-1.488-1.037-1.823l0.066-0.317l8.711,2.224l-0.552,2.357    l-0.418-0.1c0.134-1.521-0.217-1.906-2.04-2.358l-2.24-0.585c-0.401-0.1-0.535-0.067-0.669,0.435l-0.919,3.628l2.375,0.619    c1.337,0.334,1.722,0.1,2.19-1.104l0.384,0.1l-0.969,3.813L109.228,17.419z"/>
		<path id="path64693" fill="#FFFFFF" d="M119.962,25.996l-4.464-2.123l0.134-0.285c1.438,0.602,1.638,0.268,2.19-0.853l3.628-7.641    l-0.836-0.401c-1.672-0.803-2.224-0.702-3.344,0.802l-0.384-0.167l1.338-2.558l8.61,4.096l-1.137,2.642l-0.368-0.167    c0.485-1.839,0.184-2.324-1.504-3.11l-0.819-0.401l-3.712,7.808c-0.485,1.037-0.452,1.421,0.819,2.073L119.962,25.996z"/>
		<path id="path64695" fill="#FFFFFF" stroke="#FFFFFF" stroke-width="0.0023" stroke-miterlimit="10.433" d="M119.962,25.996    l-4.464-2.123l0.134-0.285c1.438,0.602,1.638,0.268,2.19-0.853l3.628-7.641l-0.836-0.401c-1.672-0.803-2.224-0.702-3.344,0.802    l-0.384-0.167l1.338-2.558l8.61,4.096l-1.137,2.642l-0.368-0.167c0.485-1.839,0.184-2.324-1.504-3.11l-0.819-0.401l-3.712,7.808    c-0.485,1.037-0.452,1.421,0.819,2.073L119.962,25.996z"/>
		<path id="path64697" fill="#FFFFFF" d="M122.336,26.699l0.067,0.033l0.05,0.034l0.05,0.033l0.05,0.034l0.05,0.033l0.05,0.017    l0.05,0.034l0.05,0.017l0.05,0.017l0.034,0.034l0.05,0.017l0.05,0.017l0.033,0.017l0.05,0.017l0.067,0.033l0.083,0.017    l0.067,0.017h0.067l0.067,0.017l0.067-0.017h0.067l0.05-0.017l0.067-0.017l0.05-0.017l0.067-0.033l0.05-0.034l0.05-0.033    l0.05-0.034l0.067-0.05l0.05-0.05l0.05-0.067l0.05-0.067l0.067-0.067l0.05-0.067l0.05-0.084l0.067-0.083l0.067-0.083l0.067-0.083    l0.05-0.101l4.146-6.053c0.702-1.036,0.602-1.304-0.384-2.09l0.184-0.267l3.896,2.658l-0.184,0.251    c-1.121-0.635-1.404-0.569-2.09,0.418l-1.856,2.725l4.23,2.893l1.856-2.725c0.702-1.02,0.602-1.304-0.368-2.09l0.184-0.268    l3.879,2.659l-0.184,0.268c-1.12-0.652-1.405-0.568-2.09,0.418l-4.23,6.203c-0.635,0.919-0.686,1.288,0.368,2.09l-0.184,0.268    l-3.879-2.642l0.184-0.284c1.204,0.752,1.472,0.485,2.19-0.552l1.856-2.726l-4.23-2.893l-1.973,2.859    c-0.619,0.936-0.669,1.287,0.385,2.106l-0.184,0.268l-3.896-2.658L122.336,26.699z"/>
		<path id="path64699" fill="#FFFFFF" stroke="#FFFFFF" stroke-width="0.0023" stroke-miterlimit="10.433" d="M122.336,26.699    l0.067,0.033l0.05,0.034l0.05,0.033l0.05,0.034l0.05,0.033l0.05,0.017l0.05,0.034l0.05,0.017l0.05,0.017l0.034,0.034l0.05,0.017    l0.05,0.017l0.033,0.017l0.05,0.017l0.067,0.033l0.083,0.017l0.067,0.017h0.067l0.067,0.017l0.067-0.017h0.067l0.05-0.017    l0.067-0.017l0.05-0.017l0.067-0.033l0.05-0.034l0.05-0.033l0.05-0.034l0.067-0.05l0.05-0.05l0.05-0.067l0.05-0.067l0.067-0.067    l0.05-0.067l0.05-0.084l0.067-0.083l0.067-0.083l0.067-0.083l0.05-0.101l4.146-6.053c0.702-1.036,0.602-1.304-0.384-2.09    l0.184-0.267l3.896,2.658l-0.184,0.251c-1.121-0.635-1.404-0.569-2.09,0.418l-1.856,2.708l4.23,2.909l1.856-2.725    c0.702-1.02,0.602-1.304-0.368-2.09l0.184-0.268l3.879,2.659l-0.184,0.268c-1.12-0.652-1.405-0.568-2.09,0.418l-4.23,6.203    c-0.635,0.919-0.686,1.288,0.368,2.09l-0.184,0.268l-3.879-2.642l0.184-0.284c1.204,0.752,1.472,0.485,2.19-0.552l1.856-2.742    l-4.23-2.876l-1.973,2.859c-0.619,0.936-0.669,1.287,0.385,2.106l-0.184,0.268l-3.896-2.658L122.336,26.699z"/>
		<path id="path64701" fill="#FFFFFF" d="M139.04,40.509l-6.654-6.237l0.217-0.234c0.836,0.686,1.221,0.836,2.106-0.117l5.133-5.468    c0.919-0.986,0.702-1.337-0.017-2.124l0.218-0.234l6.554,6.136l-1.622,1.806l-0.318-0.284c0.853-1.271,0.719-1.772-0.652-3.06    l-1.672-1.555c-0.251-0.25-0.401-0.385-0.786,0.033l-2.575,2.742l1.89,1.789c1.104,1.02,1.505,0.836,2.458,0.083l0.301,0.268    l-2.691,2.876l-0.284-0.268c0.769-1.137,0.752-1.471-0.251-2.458l-1.89-1.806l-2.859,3.06c-0.485,0.518-0.501,0.518,1.337,2.24    c1.555,1.455,2.508,1.672,4.23,0.937l0.334,0.317L139.04,40.509z"/>
		<path id="path64703" fill="#FFFFFF" stroke="#FFFFFF" stroke-width="0.0023" stroke-miterlimit="10.433" d="M139.04,40.509    l-6.654-6.237l0.217-0.234c0.836,0.686,1.221,0.836,2.106-0.117l5.133-5.468c0.919-0.986,0.702-1.337-0.017-2.124l0.218-0.234    l6.554,6.136l-1.622,1.806l-0.318-0.284c0.853-1.271,0.719-1.772-0.652-3.06l-1.672-1.555c-0.251-0.25-0.401-0.385-0.786,0.033    l-2.575,2.742l1.89,1.789c1.104,1.02,1.505,0.836,2.458,0.083l0.301,0.268l-2.691,2.876l-0.284-0.268    c0.769-1.137,0.752-1.471-0.251-2.458l-1.89-1.806l-2.859,3.06c-0.485,0.518-0.501,0.518,1.337,2.24    c1.555,1.455,2.508,1.672,4.23,0.937l0.334,0.317L139.04,40.509z"/>
		<path id="path64705" fill="#FFFFFF" d="M145.611,49.137l-2.859-4.013l0.251-0.201c0.953,1.221,1.304,1.037,2.307,0.318    l6.905-4.916l-0.535-0.736c-1.087-1.521-1.605-1.705-3.328-0.936l-0.234-0.334l2.391-1.588l5.551,7.775l-2.291,1.755l-0.234-0.334    c1.304-1.371,1.287-1.939,0.2-3.444l-0.518-0.752l-7.056,5.016c-0.937,0.669-1.07,1.02-0.285,2.207L145.611,49.137z"/>
		<path id="path64707" fill="#FFFFFF" stroke="#FFFFFF" stroke-width="0.0023" stroke-miterlimit="10.433" d="M145.611,49.137    l-2.859-4.013l0.251-0.201c0.953,1.221,1.304,1.037,2.307,0.318l6.905-4.916l-0.535-0.736c-1.087-1.521-1.605-1.705-3.328-0.936    l-0.234-0.334l2.391-1.588l5.551,7.775l-2.291,1.755l-0.234-0.334c1.304-1.371,1.287-1.939,0.2-3.444l-0.518-0.752l-7.056,5.016    c-0.937,0.669-1.07,1.02-0.285,2.207L145.611,49.137z"/>
		<path id="path64713" fill="#FFFFFF" d="M155.927,69.552l-2.893-8.661l0.301-0.1c0.401,1.003,0.668,1.321,1.906,0.903l7.123-2.374    c1.288-0.418,1.254-0.836,0.987-1.873l0.301-0.1l2.842,8.527l-2.274,0.802l-0.134-0.401c1.354-0.719,1.472-1.22,0.87-2.993    l-0.719-2.173c-0.117-0.334-0.167-0.535-0.719-0.352l-3.562,1.188l0.819,2.475c0.485,1.438,0.919,1.471,2.107,1.254l0.134,0.368    l-3.729,1.254l-0.117-0.368c1.221-0.619,1.354-0.937,0.919-2.274l-0.786-2.491l-3.979,1.337c-0.652,0.217-0.669,0.217,0.117,2.608    c0.686,2.006,1.421,2.642,3.277,2.809l0.15,0.451L155.927,69.552z"/>
		<path id="path64715" fill="#FFFFFF" stroke="#FFFFFF" stroke-width="0.0023" stroke-miterlimit="10.433" d="M155.927,69.552    l-2.893-8.661l0.301-0.1c0.401,1.003,0.668,1.321,1.906,0.903l7.123-2.374c1.288-0.418,1.254-0.836,0.987-1.873l0.301-0.1    l2.842,8.527l-2.274,0.802l-0.134-0.401c1.354-0.719,1.472-1.22,0.87-2.993l-0.719-2.173c-0.117-0.334-0.167-0.535-0.719-0.352    l-3.562,1.188l0.819,2.475c0.485,1.438,0.919,1.471,2.107,1.254l0.134,0.368l-3.729,1.254l-0.117-0.368    c1.221-0.619,1.354-0.937,0.919-2.274l-0.786-2.491l-3.979,1.337c-0.652,0.217-0.669,0.217,0.117,2.608    c0.686,2.006,1.421,2.642,3.277,2.809l0.15,0.451L155.927,69.552z"/>
		<path id="path64721" fill="#FFFFFF" d="M166.327,89.499l-0.017-0.418c1.388-0.318,2.892-1.421,2.859-3.193    c-0.017-0.853-0.552-1.706-1.605-1.689c-2.541,0.05-2.775,5.702-6.236,5.769c-1.438,0.017-3.094-1.104-3.127-3.511    c-0.017-1.287,0.535-2.124,0.519-2.642c0-0.351-0.301-0.519-0.569-0.519v-0.368l3.578-0.568v0.384    c-0.786,0.351-2.959,1.237-2.926,3.528c0.033,1.354,1.003,2.007,1.922,1.99c0.953-0.017,1.521-0.301,2.943-2.809    c0.87-1.571,1.588-2.658,3.26-2.692c1.923-0.033,2.909,1.488,2.926,3.01c0.034,1.02-0.535,1.939-0.535,2.357    c0.017,0.485,0.401,0.552,0.602,0.585v0.351L166.327,89.499z"/>
		<path id="path64723" fill="#FFFFFF" stroke="#FFFFFF" stroke-width="0.0023" stroke-miterlimit="10.433" d="M166.327,89.499    l-0.017-0.418c1.388-0.318,2.892-1.421,2.859-3.193c-0.017-0.853-0.552-1.706-1.605-1.689c-2.541,0.05-2.775,5.702-6.236,5.769    c-1.438,0.017-3.094-1.104-3.127-3.511c-0.017-1.287,0.535-2.124,0.519-2.642c0-0.351-0.301-0.519-0.569-0.519v-0.368l3.578-0.568    v0.384c-0.786,0.351-2.959,1.237-2.926,3.528c0.033,1.354,1.003,2.007,1.922,1.99c0.953-0.017,1.521-0.301,2.943-2.809    c0.87-1.571,1.588-2.658,3.26-2.692c1.923-0.033,2.909,1.488,2.926,3.01c0.034,1.02-0.535,1.939-0.535,2.357    c0.017,0.485,0.401,0.552,0.602,0.585v0.351L166.327,89.499z"/>
		<path id="path64725" fill="#FFFFFF" d="M167.915,102.975v-0.117v-0.117v-0.101v-0.1v-0.1l-0.017-0.101l-0.017-0.083l-0.017-0.083    l-0.017-0.083l-0.017-0.067l-0.017-0.067l-0.034-0.067l-0.034-0.066l-0.033-0.067l-0.05-0.05l-0.05-0.05l-0.051-0.05l-0.066-0.05    l-0.05-0.05l-0.083-0.033l-0.067-0.034l-0.084-0.05l-0.1-0.034l-0.083-0.017l-0.117-0.033l-0.1-0.034l-0.117-0.034h-0.067    l-0.067-0.017l-0.067-0.017l-0.066-0.017h-0.067l-0.083-0.017l-0.067-0.017h-0.083l-0.084-0.017l-0.066-0.017l-4.397-0.568    c-1.337-0.167-4.481-0.569-3.913-4.916c0.535-4.163,3.795-3.745,4.815-3.612l5.233,0.686c1.237,0.151,1.455-0.066,1.706-1.32    l0.317,0.033l-0.619,4.749l-0.317-0.034c0.067-1.337-0.117-1.571-1.304-1.722l-5.367-0.702c-1.087-0.133-3.411-0.435-3.795,2.492    c-0.167,1.304,0.234,2.324,0.97,2.909c0.334,0.267,0.869,0.518,2.224,0.686l4.531,0.585c1.806,0.234,2.14-0.134,2.357-1.288    l0.317,0.034l-0.501,3.896L167.915,102.975z"/>
		<path id="path64727" fill="#FFFFFF" stroke="#FFFFFF" stroke-width="0.0023" stroke-miterlimit="10.433" d="M167.915,102.975    v-0.117v-0.117v-0.101v-0.1v-0.1l-0.017-0.101l-0.017-0.083l-0.017-0.083l-0.017-0.083l-0.017-0.067l-0.017-0.067l-0.034-0.067    l-0.034-0.066l-0.033-0.067l-0.05-0.05l-0.05-0.05l-0.051-0.05l-0.066-0.05l-0.05-0.05l-0.083-0.033l-0.067-0.034l-0.084-0.05    l-0.1-0.034l-0.083-0.017l-0.117-0.033l-0.1-0.034l-0.117-0.034h-0.067l-0.067-0.017l-0.067-0.017l-0.066-0.017h-0.067    l-0.083-0.017l-0.067-0.017h-0.083l-0.084-0.017l-0.066-0.017l-4.397-0.568c-1.337-0.167-4.481-0.569-3.913-4.916    c0.535-4.163,3.795-3.745,4.815-3.612l5.233,0.686c1.237,0.151,1.455-0.066,1.706-1.32l0.317,0.033l-0.619,4.749l-0.317-0.034    c0.067-1.337-0.117-1.571-1.304-1.722l-5.367-0.702c-1.087-0.133-3.411-0.435-3.795,2.492c-0.167,1.304,0.234,2.324,0.97,2.909    c0.334,0.267,0.869,0.518,2.224,0.686l4.531,0.585c1.806,0.234,2.14-0.134,2.357-1.288l0.317,0.034l-0.501,3.896L167.915,102.975z    "/>
		<path id="path64733" fill="#FFFFFF" d="M159.555,126.132l0.034-0.1l0.034-0.117l0.033-0.117l0.017-0.05l0.017-0.067v-0.05    l0.017-0.067v-0.067v-0.067v-0.067v-0.083l-0.017-0.067v-0.083l-0.017-0.083l-0.017-0.084l-0.017-0.083l-0.033-0.1l-0.034-0.101    l-0.034-0.117l-0.05-0.1l-0.05-0.117l-0.05-0.117l-0.05-0.134l-0.066-0.133l-0.034-0.067l-0.034-0.067l-0.05-0.083l-0.034-0.067    l-0.05-0.083l-0.034-0.066l-0.05-0.084l-0.05-0.083l-0.05-0.083l-0.05-0.083l-2.324-3.929l-2.959-1.438    c-1.087-0.535-1.455-0.468-2.124,0.886l-0.301-0.134l2.273-4.648l0.301,0.134c-0.702,1.505-0.385,1.722,0.786,2.291l2.642,1.287    l3.896-0.568c3.026-0.435,3.193-0.635,3.578-1.288l0.301,0.134l-2.09,4.247l-0.284-0.134c0.318-0.703,0.485-1.104,0.05-1.304    c-0.167-0.083-0.518-0.1-0.786-0.067l-4.464,0.602l2.374,3.862c0.117,0.184,0.234,0.385,0.451,0.485    c0.468,0.234,0.786-0.334,1.02-0.803l0.284,0.134l-1.622,3.327L159.555,126.132z"/>
		<path id="path64735" fill="#FFFFFF" stroke="#FFFFFF" stroke-width="0.0023" stroke-miterlimit="10.433" d="M159.555,126.132    l0.034-0.117l0.034-0.101l0.033-0.117l0.017-0.05l0.017-0.067v-0.05l0.017-0.067v-0.067v-0.067v-0.067v-0.083l-0.017-0.067v-0.083    l-0.017-0.083l-0.017-0.084l-0.017-0.1l-0.033-0.083l-0.034-0.101l-0.034-0.117l-0.05-0.1l-0.05-0.117l-0.05-0.117l-0.05-0.134    l-0.066-0.133l-0.034-0.067l-0.034-0.067l-0.05-0.083l-0.034-0.067l-0.05-0.083l-0.034-0.066l-0.05-0.084l-0.05-0.083l-0.05-0.083    l-0.05-0.083l-2.324-3.929l-2.959-1.438c-1.087-0.535-1.455-0.468-2.124,0.886l-0.301-0.134l2.273-4.648l0.301,0.134    c-0.702,1.505-0.385,1.722,0.786,2.291l2.642,1.287l3.896-0.568c3.026-0.435,3.193-0.635,3.578-1.288l0.301,0.134l-2.09,4.247    l-0.284-0.134c0.318-0.703,0.485-1.104,0.05-1.304c-0.167-0.083-0.518-0.1-0.786-0.067l-4.464,0.602l2.374,3.862    c0.117,0.184,0.234,0.385,0.451,0.485c0.468,0.234,0.786-0.334,1.02-0.803l0.284,0.134l-1.622,3.327L159.555,126.132z"/>
		<path fill="#FFFFFF" d="M23.521,61.793c-0.468,1.221-0.802,1.405-2.023,0.987l-2.909-1.037c0.234-0.368,0.351-0.669,0.485-1.054    c0.602-1.672,0.686-2.792,0.284-3.711c-0.167-0.351-0.568-1.288-1.806-1.739c-2.023-0.719-3.578,0.953-4.364,3.144l-1.505,4.213    l0.301,0.101c0.518-1.121,0.786-1.221,1.99-0.736l6.905,2.475c1.07,0.317,1.421,0.451,1.053,1.822l0.418-0.017l1.588-4.448H23.521    z M18.355,60.707l-0.033,0.117l-0.05,0.117l-0.05,0.117l-0.05,0.117l-0.05,0.117l-0.05,0.117l-0.05,0.117l-4.146-1.488    c-0.535-0.184-0.468-0.368-0.301-0.853c0.251-0.702,1.104-3.009,3.377-2.19c2.424,0.87,1.672,2.993,1.455,3.578L18.355,60.707z"/>
		<path fill="#FFFFFF" d="M29.959,49.555c-0.401,0.635-0.669,0.752-2.023,0.652l-10.466-0.836l-0.151,0.284l5.651,7.039    c0.569,0.719,1.371,1.772,1.521,2.224c0.134,0.435,0.034,0.702-0.067,0.936l0.268,0.15l1.588-2.942l-0.267-0.15    c-0.184,0.317-0.552,1.003-1.188,0.668c-0.167-0.083-0.351-0.234-0.485-0.418l-1.388-1.622l2.107-3.913l1.755,0.167    c0.251,0.017,0.786,0.1,1.037,0.217c0.535,0.301,0.351,0.802,0.067,1.354l0.268,0.15l2.057-3.812L29.959,49.555z M22.87,55.356    l-3.177-3.929l5.033,0.485L22.87,55.356z"/>
		<path fill="#FFFFFF" d="M36.296,42.181l1.722-2.157l-0.25-0.201c-0.452,0.535-0.953,0.669-1.539,0.686l-5.518,0.15    c0.402-0.786,1.421-2.775-0.384-4.146c-2.073-1.588-4.046,0.401-4.966,1.588l-2.842,3.712l0.251,0.184    c0.819-0.853,1.086-0.97,2.157-0.117l5.818,4.447c0.937,0.703,1.17,0.97,0.401,2.107l0.251,0.201l2.859-3.712l-0.251-0.201    c-0.886,1.037-1.237,0.97-2.14,0.284l-2.642-2.04l0.485-0.77L36.296,42.181z M29.591,41.295l-0.083,0.151l-0.083,0.15L29.34,41.73    l-0.101,0.133l-0.083,0.134l-0.083,0.117l-0.101,0.134l-0.083,0.117l-0.083,0.117l-0.083,0.1l-3.294-2.525    c-0.401-0.301-0.401-0.501,0.15-1.204c0.418-0.552,1.806-2.274,3.595-0.903l0.083,0.067l0.084,0.067l0.083,0.067l0.067,0.067    l0.067,0.083l0.067,0.067l0.067,0.083l0.05,0.067l0.05,0.067l0.05,0.083l0.034,0.083l0.05,0.067l0.034,0.084l0.017,0.067    l0.033,0.083l0.017,0.083l0.033,0.067l0.017,0.083l0.017,0.15l0.017,0.167l-0.017,0.15v0.167l-0.034,0.151l-0.033,0.167    l-0.034,0.15l-0.05,0.15l-0.066,0.167l-0.067,0.15l-0.067,0.15l-0.067,0.15L29.591,41.295z"/>
		<path fill="#FFFFFF" d="M96.487,7.303l-0.25-0.033h-0.268h-0.268l-0.25,0.017L95.2,7.303l-0.268,0.05l-0.251,0.05l-0.251,0.05    l-0.25,0.084l-0.25,0.083l-0.234,0.083l-0.251,0.117L93.21,7.939l-0.217,0.134l-0.218,0.15l-0.217,0.15l-0.217,0.167L92.14,8.725    l-0.184,0.184l-0.184,0.217l-0.184,0.217l-0.167,0.217l-0.151,0.251l-0.15,0.25l-0.133,0.268l-0.118,0.284l-0.117,0.301    l-0.1,0.301l-0.083,0.318l-0.067,0.334l-0.067,0.334l-0.05,0.368c-0.368,3.595,1.722,6.019,4.916,6.337    c3.06,0.317,5.735-1.639,6.103-5.233C101.788,9.812,99.247,7.588,96.487,7.303z M99.53,12.771l-0.017,0.351l-0.033,0.351    c-0.368,3.695-2.241,5.016-4.113,4.832s-3.428-1.856-3.06-5.568c0.401-3.845,2.408-5.016,4.13-4.832l0.15,0.017l0.167,0.033    l0.15,0.033l0.167,0.05l0.15,0.05l0.15,0.067l0.167,0.067l0.15,0.083l0.134,0.083l0.15,0.101l0.133,0.117l0.151,0.117l0.117,0.134    l0.134,0.134l0.117,0.15l0.117,0.167l0.117,0.167l0.101,0.184l0.083,0.201l0.101,0.2l0.083,0.218l0.067,0.234l0.067,0.234    l0.05,0.251l0.05,0.268l0.034,0.284l0.017,0.284l0.017,0.301l0.017,0.317L99.53,12.771z"/>
		<path id="path64755" fill="none" stroke="#FFFFFF" stroke-width="0.0023" stroke-miterlimit="10.433" d="M99.48,13.473    l0.033-0.351l0.017-0.351l0.017-0.318l-0.017-0.317l-0.017-0.301l-0.017-0.284l-0.034-0.284l-0.05-0.268l-0.05-0.251l-0.067-0.234    l-0.067-0.234l-0.083-0.218l-0.101-0.2l-0.083-0.201l-0.101-0.184L98.745,9.31l-0.117-0.167l-0.117-0.15l-0.134-0.134L98.26,8.725    l-0.151-0.117l-0.133-0.117l-0.15-0.101l-0.134-0.083l-0.15-0.083l-0.167-0.067l-0.15-0.067l-0.15-0.05l-0.167-0.05l-0.15-0.033    l-0.167-0.033l-0.15-0.017c-1.722-0.184-3.729,0.987-4.13,4.832c-0.368,3.712,1.187,5.384,3.06,5.568S99.112,17.168,99.48,13.473z    "/>
		<path fill="#FFFFFF" d="M159.321,49.739l-2.123-4.164l-0.285,0.151c0.435,1.12,0.401,1.404-0.702,1.973l-6.538,3.327    c-1.12,0.569-1.471,0.669-2.173-0.518l-0.284,0.15l2.123,4.18l0.285-0.151c-0.552-1.237-0.334-1.521,0.669-2.04l2.976-1.521    l0.452,0.836l-2.809,5.952l1.237,2.424l0.285-0.15c-0.285-0.635-0.201-1.12,0.033-1.672l2.24-5.049    c0.535,0.702,1.906,2.474,3.929,1.455C160.959,53.735,160.006,51.076,159.321,49.739z M157.632,53.651l-0.101,0.05l-0.1,0.05    l-0.1,0.033l-0.101,0.034l-0.084,0.033l-0.1,0.017l-0.1,0.033l-0.083,0.017l-0.083,0.017h-0.101h-0.083l-0.084,0.017l-0.083-0.017    h-0.083h-0.083l-0.084-0.017l-0.066-0.017l-0.083-0.017l-0.151-0.05l-0.15-0.067l-0.134-0.067l-0.134-0.083l-0.134-0.083    l-0.134-0.101l-0.117-0.1l-0.134-0.117l-0.1-0.117l-0.117-0.117l-0.101-0.134l-0.117-0.134l-0.101-0.134l-0.083-0.134l-0.101-0.15    l-0.083-0.134l-0.083-0.134l-0.083-0.15l-0.067-0.134l-0.083-0.134l-0.066-0.117l-0.067-0.134l-0.066-0.117l3.712-1.89    c0.435-0.217,0.618-0.134,1.02,0.652C158.669,50.625,159.622,52.631,157.632,53.651z"/>
		<path id="path64759" fill="none" stroke="#FFFFFF" stroke-width="0.0023" stroke-miterlimit="10.433" d="M153.62,51.244    l0.066,0.117l0.067,0.134l0.066,0.117l0.083,0.134l0.067,0.134l0.083,0.15l0.083,0.134l0.083,0.134l0.101,0.15l0.083,0.134    l0.101,0.134l0.117,0.134l0.101,0.134l0.117,0.117l0.1,0.117l0.134,0.117l0.117,0.1l0.134,0.101l0.134,0.083l0.134,0.083    l0.134,0.067l0.15,0.067l0.151,0.05l0.083,0.017l0.066,0.017l0.084,0.017h0.083h0.083l0.083,0.017l0.084-0.017h0.083h0.101    l0.083-0.017l0.083-0.017l0.1-0.033l0.1-0.017l0.084-0.033l0.101-0.034l0.1-0.033l0.1-0.05l0.101-0.05    c1.99-1.02,1.037-3.026,0.719-3.645c-0.401-0.786-0.585-0.87-1.02-0.652L153.62,51.244z"/>
		<path fill="#FFFFFF" d="M168.316,74.183l-8.761-2.107c-0.802-0.2-2.106-0.501-2.575-0.819c-0.368-0.251-0.451-0.535-0.518-0.786    l-0.318,0.05l0.552,3.294l0.318-0.05c-0.05-0.351-0.184-1.12,0.518-1.254c0.184-0.017,0.418-0.017,0.652,0.033l2.09,0.435    l0.719,4.38l-1.488,0.953c-0.217,0.134-0.736,0.452-0.986,0.485c-0.636,0.117-0.736-0.435-0.836-1.053l-0.317,0.05l0.702,4.247    l0.318-0.05c-0.067-0.735,0.083-1.003,1.204-1.739l8.778-5.735L168.316,74.183z M162.029,77.009l-0.635-3.862l4.899,1.17    L162.029,77.009z"/>
		<path fill="#FFFFFF" stroke="#FFFFFF" stroke-width="0.0023" stroke-miterlimit="10.433" d="M167.53,104.63    c-0.468,1.104-0.685,1.304-1.889,0.936l-7.006-2.106c-1.22-0.368-1.538-0.519-1.237-1.856l-0.301-0.101l-1.338,4.481l0.301,0.101    c0.451-1.271,0.803-1.354,1.906-1.02l3.177,0.953l-0.234,0.92l-6.153,2.357l-0.786,2.608l0.318,0.1    c0.234-0.652,0.635-0.953,1.187-1.187l5.1-2.107c-0.084,0.87-0.334,3.094,1.839,3.762c2.491,0.736,3.645-1.839,4.063-3.277    l1.354-4.464L167.53,104.63z M166.025,108.576c-0.201,0.668-0.886,2.775-3.043,2.124l-0.117-0.034l-0.101-0.033l-0.1-0.034    l-0.084-0.05l-0.1-0.033l-0.083-0.05l-0.083-0.05l-0.067-0.05l-0.083-0.05l-0.066-0.05l-0.067-0.05l-0.066-0.067l-0.05-0.05    l-0.05-0.067l-0.067-0.067l-0.05-0.067l-0.033-0.067l-0.05-0.067l-0.083-0.134l-0.05-0.15l-0.067-0.15l-0.033-0.151l-0.034-0.15    l-0.033-0.167l-0.017-0.151v-0.167v-0.167v-0.167l0.017-0.167l0.017-0.167l0.017-0.167l0.034-0.167l0.017-0.151l0.033-0.167    l0.034-0.15l0.05-0.167l0.033-0.151l0.034-0.15l0.05-0.134l0.034-0.134l0.033-0.134l3.996,1.187    C165.741,107.389,166.276,107.723,166.025,108.576z"/>
		<path id="path64767" fill="none" stroke="#FFFFFF" stroke-width="0.0023" stroke-miterlimit="10.433" d="M161.745,106.202    l-0.033,0.134l-0.034,0.134l-0.05,0.134l-0.034,0.15l-0.033,0.151l-0.05,0.167l-0.034,0.15l-0.033,0.167l-0.017,0.151    l-0.034,0.167l-0.017,0.167l-0.017,0.167l-0.017,0.167v0.167v0.167v0.167l0.017,0.151l0.033,0.167l0.034,0.15l0.033,0.151    l0.067,0.15l0.05,0.15l0.083,0.134l0.05,0.067l0.033,0.067l0.05,0.067l0.067,0.067l0.05,0.067l0.05,0.05l0.066,0.067l0.067,0.05    l0.066,0.05l0.083,0.05l0.067,0.05l0.083,0.05l0.083,0.05l0.1,0.033l0.084,0.05l0.1,0.034l0.101,0.033l0.117,0.034    c2.157,0.652,2.842-1.455,3.043-2.124c0.251-0.853-0.284-1.188-0.284-1.188L161.745,106.202z"/>
		<path id="path64769" fill="#FFFFFF" d="M65.873,22.151l-8.343,3.712l-0.133-0.284c0.953-0.502,1.254-0.803,0.585-1.923    l-3.06-6.855c-0.401-1.287-0.819-1.221-1.839-0.869l-0.117-0.285l8.193-3.662l1.037,2.19l-0.385,0.167    c-0.836-1.271-1.354-1.337-3.076-0.568l-2.09,0.92c-0.318,0.15-0.502,0.234-0.268,0.752l1.521,3.427l2.391-1.053    c1.371-0.619,1.371-1.053,1.037-2.224l0.368-0.167l1.588,3.578l-0.351,0.167c-0.736-1.154-1.07-1.271-2.357-0.703l-2.391,1.02    l1.706,3.846c0.284,0.619,0.301,0.635,2.591-0.385c1.939-0.869,2.508-1.672,2.491-3.528l0.418-0.201L65.873,22.151z"/>
		<path id="path64771" fill="#FFFFFF" stroke="#FFFFFF" stroke-width="0.0023" stroke-miterlimit="10.433" d="M65.873,22.151    l-8.343,3.712l-0.133-0.284c0.953-0.502,1.254-0.803,0.585-1.923l-3.06-6.855c-0.401-1.304-0.819-1.221-1.839-0.869l-0.117-0.285    l8.193-3.662l1.037,2.19l-0.385,0.167c-0.836-1.271-1.354-1.337-3.076-0.568l-2.09,0.92c-0.318,0.15-0.502,0.234-0.268,0.752    l1.521,3.427l2.391-1.053c1.371-0.619,1.371-1.053,1.037-2.224l0.368-0.167l1.588,3.578l-0.351,0.167    c-0.736-1.154-1.07-1.271-2.357-0.703l-2.391,1.02l1.706,3.846c0.284,0.619,0.301,0.635,2.591-0.385    c1.939-0.869,2.508-1.672,2.491-3.528l0.418-0.201L65.873,22.151z"/>
		<path id="path64773" fill="#FFFFFF" d="M69.167,167.129l0.083,0.017l0.084,0.017l0.1,0.017l0.083,0.017l0.067,0.017h0.083    l0.084,0.017h0.066l0.084,0.017h0.067h0.067l0.067-0.017h0.067h0.067l0.05-0.017l0.066-0.017l0.05-0.034l0.067-0.017l0.05-0.034    l0.05-0.033l0.05-0.05l0.05-0.034l0.034-0.05l0.017-0.034l0.033-0.033l0.017-0.033l0.017-0.017l0.017-0.033l0.017-0.05    l0.034-0.033l0.017-0.034l0.017-0.033l0.017-0.05l0.017-0.05l0.017-0.033l0.017-0.05v-0.05l0.017-0.051l0.017-0.05l0.017-0.05    l0.017-0.067l1.672-7.474c0.067-0.351,0.167-0.786-0.384-0.903c-0.201-0.05-0.201-0.05-1.221,0.117l0.067-0.234l3.311-0.836    l0.117,0.067l-2.207,9.898c-0.184,0.786,0.1,1.053,1.337,1.321l-0.05,0.25l-4.548-1.02L69.167,167.129z"/>
		<path id="path64775" fill="#FFFFFF" stroke="#FFFFFF" stroke-width="0.0023" stroke-miterlimit="10.433" d="M69.167,167.129    l0.083,0.017l0.084,0.017l0.1,0.017l0.083,0.017l0.067,0.017h0.083l0.084,0.017h0.066l0.084,0.017h0.067h0.067l0.067-0.017h0.067    h0.067l0.05-0.017l0.066-0.017l0.05-0.034l0.067-0.017l0.05-0.034l0.05-0.033l0.05-0.05l0.05-0.034l0.034-0.05l0.017-0.034    l0.033-0.033l0.017-0.033l0.017-0.017l0.017-0.033l0.017-0.05l0.034-0.033l0.017-0.034l0.017-0.033l0.017-0.05l0.017-0.05    l0.017-0.033l0.017-0.05v-0.05l0.017-0.051l0.017-0.05l0.017-0.05l0.017-0.067l1.672-7.474c0.067-0.351,0.167-0.786-0.384-0.903    c-0.201-0.05-0.201-0.05-1.221,0.117l0.067-0.234l3.311-0.836l0.117,0.067l-2.207,9.898c-0.184,0.786,0.1,1.053,1.337,1.321    l-0.05,0.25l-4.548-1.02L69.167,167.129z"/>
		<path id="path64777" fill="#FFFFFF" d="M87.492,158.953l-4.347,10.784l-1.104-0.066l4.046-9.832l-3.662-0.25    c-1.104-0.084-1.438,0.384-2.056,1.22l-0.268-0.15l0.836-1.689l0.334-0.719l6.236,0.435L87.492,158.953z"/>
		<path id="path64779" fill="#FFFFFF" stroke="#FFFFFF" stroke-width="0.0023" stroke-miterlimit="10.433" d="M87.492,158.953    l-4.347,10.784l-1.104-0.066l4.046-9.832l-3.662-0.25c-1.104-0.084-1.438,0.384-2.056,1.22l-0.268-0.15l0.836-1.689l0.334-0.719    l6.236,0.435L87.492,158.953z"/>
		<path fill="#FFFFFF" d="M109.512,160.391c-0.652-2.759-2.658-4.264-4.682-3.779c-2.157,0.485-3.06,2.575-2.541,4.765    c0.301,1.354,1.521,3.093,3.728,2.575c0.82-0.184,1.622-0.685,2.207-1.471l0.034,0.034v0.05v0.067v0.083v0.117l-0.017,0.117    l-0.017,0.134v0.15l-0.033,0.167l-0.017,0.184l-0.034,0.184l-0.05,0.201l-0.05,0.201l-0.05,0.217l-0.067,0.217l-0.083,0.234    l-0.083,0.217l-0.101,0.234l-0.101,0.251l-0.117,0.234l-0.15,0.234l-0.134,0.234l-0.167,0.234l-0.184,0.234l-0.201,0.234    l-0.201,0.217l-0.234,0.217l-0.251,0.201l-0.134,0.101l-0.134,0.1l-0.134,0.1l-0.15,0.101l-0.15,0.083l-0.15,0.101l-0.167,0.083    l-0.167,0.083l-0.167,0.067l-0.184,0.083l0.133,0.318C108.643,167.564,110.315,163.886,109.512,160.391z M107.957,162.146    c-0.284,0.368-0.902,0.819-1.454,0.953c-1.739,0.401-2.559-1.438-2.843-2.692c-0.318-1.354-0.301-2.976,1.087-3.294l0.1-0.017    l0.101-0.017l0.1-0.017h0.101h0.083h0.101h0.083l0.083,0.017l0.1,0.017l0.083,0.033l0.067,0.017l0.083,0.034l0.083,0.033    l0.067,0.033l0.084,0.05l0.066,0.034l0.067,0.05l0.083,0.05l0.117,0.117l0.134,0.117l0.117,0.134l0.117,0.134l0.101,0.151    l0.1,0.15l0.101,0.167l0.083,0.15l0.083,0.167l0.083,0.167l0.067,0.184l0.067,0.167l0.067,0.167l0.05,0.167l0.067,0.167    l0.05,0.151l0.033,0.15l0.05,0.15l0.033,0.134l0.034,0.134l0.017,0.117l0.033,0.117l0.017,0.101l0.15,0.635    C108.141,161.729,108.125,161.929,107.957,162.146z"/>
		<path id="path64791" fill="none" stroke="#FFFFFF" stroke-width="0.0023" stroke-miterlimit="10.433" d="M107.907,160.792    l-0.017-0.101l-0.033-0.117l-0.017-0.117l-0.034-0.134l-0.033-0.134l-0.05-0.15l-0.033-0.15l-0.05-0.151l-0.067-0.167l-0.05-0.167    l-0.067-0.167l-0.067-0.167l-0.067-0.184l-0.083-0.167l-0.083-0.167l-0.083-0.15l-0.101-0.167l-0.1-0.15l-0.101-0.151    l-0.117-0.134l-0.117-0.134l-0.134-0.117l-0.117-0.117l-0.083-0.05l-0.067-0.05l-0.066-0.034l-0.084-0.05l-0.067-0.033    l-0.083-0.033l-0.083-0.034l-0.067-0.017l-0.083-0.033l-0.1-0.017l-0.083-0.017h-0.083h-0.101h-0.083h-0.101l-0.1,0.017    l-0.101,0.017l-0.1,0.017c-1.388,0.318-1.405,1.94-1.087,3.294c0.284,1.254,1.104,3.093,2.843,2.692    c0.552-0.134,1.17-0.585,1.454-0.953c0.167-0.217,0.184-0.418,0.101-0.719L107.907,160.792z"/>
		<path id="path64795" fill="none" stroke="#FFFFFF" stroke-width="0.0023" stroke-miterlimit="10.433" d="M93.311,167.096    l0.017,0.117l0.017,0.117l0.017,0.117l0.033,0.117l0.017,0.117l0.033,0.1l0.05,0.117l0.033,0.1l0.05,0.101l0.05,0.1l0.05,0.1    l0.05,0.101l0.067,0.083l0.067,0.084l0.067,0.083l0.066,0.083l0.083,0.067l0.084,0.083l0.083,0.067l0.083,0.05l0.083,0.067    l0.101,0.05l0.1,0.033l0.101,0.05l0.1,0.033l0.117,0.033l0.1,0.017l0.117,0.017l0.117,0.017h0.117h0.134h0.117    c1.07-0.084,1.806-0.853,1.722-2.04c-0.1-1.237-0.853-1.689-2.892-2.926C93.946,164.838,93.194,165.558,93.311,167.096z"/>
		<path fill="#FFFFFF" stroke="#FFFFFF" stroke-width="0.0023" stroke-miterlimit="10.433" d="M98.41,166.929    c-0.1-1.137-0.535-2.073-2.926-3.528c0.886-0.552,2.173-1.371,2.057-2.926c-0.101-1.271-1.237-2.307-3.144-2.157    c-1.455,0.117-3.076,1.154-2.943,2.859v0.134l0.017,0.117l0.017,0.117l0.033,0.117l0.017,0.101l0.034,0.101l0.033,0.1l0.051,0.1    l0.033,0.101l0.05,0.1l0.05,0.083l0.05,0.083l0.05,0.101l0.066,0.083l0.067,0.083l0.067,0.083l0.083,0.084l0.067,0.083    l0.083,0.083l0.083,0.083l0.101,0.067l0.083,0.084l0.1,0.1l0.117,0.083l0.1,0.083l0.117,0.084l0.117,0.1l0.118,0.084l0.133,0.1    l0.117,0.1l0.134,0.101l0.15,0.1c-1.421,1.254-2.073,1.839-1.956,3.311c0.1,1.321,1.321,2.608,3.428,2.441    C98.059,169.737,98.477,167.815,98.41,166.929z M92.859,160.491c-0.067-0.802,0.418-1.739,1.672-1.839    c1.304-0.1,1.973,0.752,2.04,1.689v0.134v0.134v0.134v0.117l-0.017,0.117l-0.017,0.117l-0.017,0.117l-0.034,0.1l-0.033,0.101    l-0.034,0.1l-0.033,0.101l-0.05,0.1l-0.033,0.083l-0.05,0.084l-0.05,0.083l-0.051,0.083l-0.067,0.067l-0.05,0.083l-0.05,0.067    l-0.067,0.067l-0.067,0.067l-0.05,0.067l-0.067,0.067l-0.067,0.05l-0.117,0.117l-0.134,0.101l-0.117,0.1l-0.117,0.083    C94.548,162.648,92.976,161.812,92.859,160.491z M95.635,169.32h-0.117h-0.134h-0.117l-0.117-0.017l-0.117-0.017l-0.1-0.017    l-0.117-0.033l-0.1-0.033l-0.101-0.05l-0.1-0.033l-0.101-0.05l-0.083-0.067l-0.083-0.05l-0.083-0.067l-0.084-0.083l-0.083-0.067    l-0.066-0.083l-0.067-0.083l-0.067-0.084l-0.067-0.083l-0.05-0.101l-0.05-0.1l-0.05-0.1l-0.05-0.101l-0.033-0.1l-0.05-0.117    l-0.033-0.1l-0.017-0.117l-0.033-0.117l-0.017-0.117l-0.017-0.117l-0.017-0.117c-0.117-1.538,0.636-2.257,1.154-2.742    c2.04,1.237,2.792,1.688,2.892,2.926C97.44,168.467,96.705,169.236,95.635,169.32z"/>
		<path id="path64799" fill="none" stroke="#FFFFFF" stroke-width="0.0023" stroke-miterlimit="10.433" d="M95.183,162.982    l0.117-0.083l0.117-0.1l0.134-0.101l0.117-0.117l0.067-0.05l0.067-0.067l0.05-0.067l0.067-0.067l0.067-0.067l0.05-0.067    l0.05-0.083l0.067-0.067l0.051-0.083l0.05-0.083l0.05-0.084l0.033-0.083l0.05-0.1l0.033-0.101l0.034-0.1l0.033-0.101l0.034-0.1    l0.017-0.117l0.017-0.117l0.017-0.117v-0.117v-0.134v-0.134v-0.134c-0.067-0.937-0.736-1.789-2.04-1.689    c-1.254,0.101-1.739,1.037-1.672,1.839C92.976,161.812,94.548,162.648,95.183,162.982z"/>
		<polygon id="polygon64801" fill="#FFFFFF" points="45.241,115.498 45.826,113.157 43.803,111.87 46.194,111.719 46.796,109.378     47.682,111.619 50.106,111.469 48.25,113.007 49.137,115.247 47.097,113.96   "/>
		<polygon id="polygon64803" fill="#FFFFFF" points="52.581,109.579 53.183,107.239 51.126,105.951 53.534,105.8 54.136,103.46     55.022,105.7 57.43,105.533 55.574,107.088 56.477,109.329 54.437,108.041   "/>
		<polygon id="polygon64805" fill="#FFFFFF" points="59.988,104.53 60.573,102.189 58.533,100.901 60.941,100.734 61.543,98.41     62.429,100.651 64.836,100.483 62.98,102.022 63.867,104.262 61.827,102.975   "/>
		<polygon id="polygon64807" fill="#FFFFFF" points="67.027,99.497 67.629,97.156 65.589,95.869 67.997,95.718 68.582,93.377     69.485,95.618 71.893,95.468 70.037,97.006 70.923,99.247 68.883,97.959   "/>
		<polygon id="polygon64809" fill="#FFFFFF" points="73.731,94.498 74.333,92.157 72.294,90.87 74.701,90.703 75.303,88.378     76.189,90.619 78.597,90.452 76.741,91.99 77.627,94.23 75.587,92.943   "/>
		<polygon id="polygon64811" fill="#FFFFFF" points="80.436,89.482 81.038,87.141 78.999,85.871 81.406,85.703 81.991,83.362     82.894,85.603 85.302,85.452 83.446,86.991 84.332,89.231 82.292,87.944   "/>
		<polygon id="polygon64813" fill="#FFFFFF" points="86.807,84.851 87.409,82.526 85.369,81.222 87.776,81.072 88.378,78.731     89.264,80.971 91.672,80.821 89.816,82.359 90.703,84.6 88.663,83.313   "/>
		<polygon id="polygon64815" fill="#FFFFFF" points="93.461,89.699 94.046,87.358 92.006,86.071 94.414,85.904 95.016,83.563     95.902,85.804 98.31,85.653 96.454,87.208 97.356,89.432 95.3,88.145   "/>
		<polygon id="polygon64817" fill="#FFFFFF" points="100.434,94.515 101.035,92.174 99.012,90.887 101.403,90.736 102.005,88.395     102.891,90.636 105.299,90.468 103.443,92.023 104.346,94.247 102.306,92.977   "/>
		<polygon id="polygon64819" fill="#FFFFFF" points="107.155,100.4 107.757,98.059 105.717,96.772 108.125,96.622 108.709,94.28     109.613,96.521 112.02,96.371 110.147,97.892 111.051,100.149 109.011,98.845   "/>
		<polygon id="polygon64821" fill="#FFFFFF" points="114.144,105.215 114.746,102.875 112.706,101.587 115.113,101.437     115.699,99.096 116.585,101.336 119.009,101.186 117.153,102.724 118.04,104.964 116,103.677   "/>
		<polygon id="polygon64823" fill="#FFFFFF" points="121.132,110.031 121.734,107.69 119.694,106.402 122.103,106.252     122.688,103.911 123.59,106.152 125.998,105.984 124.142,107.54 125.028,109.78 122.989,108.492   "/>
		<polygon id="polygon64825" fill="#FFFFFF" points="128.573,116.234 129.158,113.893 127.118,112.605 129.526,112.438     130.128,110.098 131.014,112.355 133.421,112.188 131.566,113.726 132.469,115.966 130.429,114.679   "/>
		<g>
			<path fill="#FFFFFF" d="M115.833,127.152l-0.017-0.15l-0.017-0.134l-0.017-0.15l-0.034-0.134l-0.017-0.133l-0.033-0.15     l-0.034-0.134l-0.033-0.134l-0.05-0.117l-0.034-0.134l-0.05-0.117l-0.05-0.134l-0.05-0.117l-0.05-0.117l-0.05-0.117l-0.05-0.117     l-0.066-0.101l-0.067-0.117l-0.067-0.1l-0.067-0.101l-0.067-0.1l-0.066-0.1l-0.084-0.083l-0.067-0.101l-0.083-0.083l-0.083-0.084     l-0.067-0.066l-0.084-0.083l-0.083-0.067l-0.1-0.066l-0.083-0.067l0.167-0.101c0.97-0.836,1.572-2.341,1.488-4.013     c-0.101-2.408-1.622-4.247-3.377-4.08c-1.772,0.15-3.093,2.24-2.977,4.648c0.067,1.588,0.736,2.909,1.689,3.595l-0.167,0.151     c-0.953,0.853-1.555,2.374-1.455,4.029c0.134,2.407,1.672,4.213,3.428,4.029c1.755-0.184,3.06-2.291,2.926-4.698V127.152z"/>
			<path fill="#FFFFFF" d="M88.462,93.511l-42,29.795c10.5,15.483,21.77,15.801,21.77,15.801     c17.255,5.902,20.448,11.67,20.448,11.67l0.017-0.017l0.034-0.066l0.083-0.101l0.117-0.134l0.151-0.184l0.167-0.201l0.234-0.234     l0.25-0.268l0.301-0.301l0.334-0.318l0.368-0.351l0.418-0.368l0.468-0.385l0.502-0.401l0.552-0.418l0.602-0.418l0.652-0.451     l0.685-0.452l0.752-0.451l0.786-0.469l0.853-0.468l0.903-0.468l0.953-0.468l1.02-0.451l1.054-0.468l1.137-0.451l1.17-0.452     l1.254-0.435l1.304-0.418l1.354-0.401l1.438-0.401l1.488-0.368c0,0,11.219-0.385,21.118-15.784L88.462,93.511z M112.572,133.856     l-0.385-0.017l-0.351-0.033l-0.351-0.05l-0.318-0.067l-0.317-0.083l-0.318-0.101l-0.285-0.134l-0.267-0.134l-0.268-0.15     l-0.251-0.167l-0.234-0.184l-0.234-0.201l-0.217-0.217l-0.201-0.234l-0.184-0.234l-0.184-0.268l-0.167-0.267l-0.151-0.285     l-0.15-0.284l-0.133-0.301l-0.134-0.318l-0.117-0.334l-0.1-0.334l-0.101-0.352l-0.1-0.351l-0.084-0.368l-0.067-0.368     l-0.066-0.385l-0.051-0.385l-0.05-0.401l-0.05-0.401l-0.034-0.401c0,0-1.588-0.184-1.889,1.354c0,0-0.435-1.304-1.572-1.354     l-29.12,0.044l-0.056,0.056l-0.117,0.101l-0.117,0.1l-0.117,0.084l-0.117,0.083l-0.134,0.083l-0.134,0.067l-0.134,0.067     l-0.134,0.05l-0.15,0.05l-0.134,0.05l-0.151,0.033l-0.15,0.034l-0.167,0.017l-0.15,0.017h-0.15c-0.826,0-1.572-0.339-2.124-0.887     c0,0,0.001,0,0.001,0l-0.051,0v6.487l-5.284-0.067l0.017-5.267l2.106,0.017l0.05,1.237h1.087l0.017-2.458h-7.424v2.458h1.188     l-0.034-1.237h2.09v5.267h-5.25v-6.571h-2.291c0,0-2.893-1.839-0.017-4.164l13.519-0.014l-0.001,0.001     c0.563-0.727,1.426-1.19,2.399-1.19c0.96,0,1.818,0.461,2.379,1.184l28.453-0.03c1.505,0.05,1.839-1.104,1.839-1.104     c0.352,1.321,1.973,1.053,1.973,1.053l0.05,0.05c0.201-4.598,1.388-7.825,5.869-7.842c4.782-0.017,5.735,4.08,5.735,9.597     S117.488,133.873,112.572,133.856z"/>
		</g>
	</g>
</g>
</svg>